<svg width="37" height="48" viewBox="0 0 37 48" fill="none" xmlns="http://www.w3.org/2000/svg">
<path id="Vector" d="M18.1622 48C18.1622 48 36.3243 28.5 36.3243 18C36.3243 8.0625 28.1892 0 18.1622 0C8.13514 0 0 8.0625 0 18C0 28.5 18.1622 48 18.1622 48ZM18.1622 12C19.7678 12 21.3077 12.6321 22.443 13.7574C23.5784 14.8826 24.2162 16.4087 24.2162 18C24.2162 19.5913 23.5784 21.1174 22.443 22.2426C21.3077 23.3679 19.7678 24 18.1622 24C16.5565 24 15.0167 23.3679 13.8813 22.2426C12.7459 21.1174 12.1081 19.5913 12.1081 18C12.1081 16.4087 12.7459 14.8826 13.8813 13.7574C15.0167 12.6321 16.5565 12 18.1622 12Z" fill="#0B2A35"/>
</svg>
