<?xml version="1.0" encoding="UTF-8"?>
<svg id="Layer_1" data-name="Layer 1" xmlns="http://www.w3.org/2000/svg" viewBox="0 0 1080 1101.31">
  <defs>
    <style>
      .cls-1 {
        fill: #0b2a35;
      }

      .cls-2 {
        fill: #ccb6a6;
      }

       @media (prefers-color-scheme: dark) {
      .cls-1 {
        fill: #f7f3ed;
      }
    }
    </style>
  </defs>
  <path class="cls-1" d="M635.78,27.74c.44,2.62-3.22,2.61-5.14,3.18-144.13,43.18-256.56,125.04-319.76,264.28-75.59,166.53-71.25,434.65,40.35,585.01,105.79,142.54,296.22,140.73,400.32-1.88,98.12-134.41,112.12-359.58,60-513.77-3.95-11.69-13.63-29.07-15.91-39.69-2.5-11.61,2.65-21.51,11.98-28.11l133.6-66.65c19.47-4.15,26.31,6.49,36.59,20.18,148.9,198.28,132.76,487.92-33.19,670.86-288.82,318.39-814.61,196.11-925.9-220.18C-69.04,372.74,162.19,60.3,495.71,29.54c20.49-1.89,42.48-3.17,63.02-3.74,26-.72,51.2,2.07,77.04,1.95Z"/>
  <path class="cls-2" d="M765.6,179.72c-75.65,13.29-146.84,51.55-207.59,97.42-96.16,72.6-176.17,170.78-228.59,279.4l-21.89,53.18c.33-9.55-.46-19.23-.06-28.78,9.87-234.87,144.86-455.33,381.67-515.64,22.92-5.84,47.33-10.7,70.89-11.63,4.08-4.07-24.04-38.15-20.14-46.98.84-2.84,6.87-6.7,9.91-6.7l253.11,95.45c6,3.74,5.49,14.14-1.14,17.26l-239.34,118.63c-2.96,1-9.21-.94-10.82-3.36-6.61-9.98,17.2-45.03,13.98-48.26Z"/>
</svg>